<?xml version="1.0" encoding="UTF-8"?>
<svg width="38px" height="215px" viewBox="0 0 38 215" version="1.1" xmlns="http://www.w3.org/2000/svg" xmlns:xlink="http://www.w3.org/1999/xlink">
    <title>Group</title>
    <g id="Page-1" stroke="none" stroke-width="1" fill="none" fill-rule="evenodd">
        <g id="uza-01" transform="translate(-145.000000, -5405.000000)">
            <g id="Group" transform="translate(163.823102, 5512.323102) rotate(-270.000000) translate(-163.823102, -5512.323102) translate(56.823102, 5493.823102)">
                <path d="M33.9253958,0 L33.9253958,16.9626979 C33.9253958,26.3164685 26.3164685,33.9253958 16.9626979,33.9253958 C7.6089273,33.9253958 0,26.3164685 0,16.9626979 L0,0 L6.05803231,0 L6.05803231,16.9626979 C6.05803231,22.9723296 10.9530662,27.8673635 16.9626979,27.8673635 C22.9723296,27.8673635 27.8673635,22.9723296 27.8673635,16.9626979 L27.8673635,0 L33.9253958,0 Z" id="Fill-1" fill="#0F2A54"></path>
                <polygon id="Fill-3" fill="#0F2A54" points="72.8427305 27.8190666 72.8427305 33.8770989 38.9173347 33.9254995 38.9657354 33.8770989 60.4355706 6.05813603 38.8685884 6.05813603 38.8685884 0.00010371567 65.0882556 0.00010371567 72.6971829 0.00010371567 67.9960973 6.05813603 59.5633218 17.0112023 55.7348307 21.9546368 51.178947 27.8190666"></polygon>
                <polygon id="Fill-5" fill="#0F2A54" points="110.424657 33.9255341 103.639578 33.9255341 100.537788 27.8675018 93.1228087 13.3279477 85.707484 27.8675018 82.605694 33.9255341 75.8206149 33.9255341 78.9224048 27.8675018 93.1228087 0.000138287561 107.322867 27.8675018"></polygon>
                <path d="M96.564475,30.5184743 C96.564475,28.6173661 95.0232601,27.0764969 93.1224976,27.0764969 C91.2217351,27.0764969 89.6805202,28.6173661 89.6805202,30.5184743 C89.6805202,32.4192368 91.2217351,33.9604517 93.1224976,33.9604517 C95.0232601,33.9604517 96.564475,32.4192368 96.564475,30.5184743" id="Fill-7" fill="#FF0000"></path>
                <line x1="120.73358" y1="0.524144426" x2="120.73358" y2="33.4545612" id="Fill-9" fill="#0F2A54"></line>
                <polygon id="Fill-11" fill="#0F2A54" points="120.272356 33.9160614 121.19508 33.9160614 121.19508 0.0625751212 120.272356 0.0625751212"></polygon>
                <path d="M138.98612,5.19034701 C138.98612,2.91724523 137.265477,1.23463134 134.979238,1.23463134 C132.680553,1.23463134 130.95991,2.91724523 130.95991,5.19034701 C130.95991,7.46344879 132.680553,9.14571696 134.979238,9.14571696 C137.265477,9.14571696 138.98612,7.46344879 138.98612,5.19034701 M130.304427,5.19034701 C130.304427,2.58293506 132.295422,0.631006139 134.979238,0.631006139 C137.650608,0.631006139 139.654049,2.57048918 139.654049,5.19034701 C139.654049,7.81020485 137.650608,9.74968788 134.979238,9.74968788 C132.295422,9.74968788 130.304427,7.79741325 130.304427,5.19034701" id="Fill-13" fill="#0F2A54"></path>
                <path d="M141.953598,2.49329015 C141.953598,2.80167141 141.722312,3.03261163 141.427068,3.03261163 C141.105896,3.03261163 140.887747,2.78853409 140.887747,2.49329015 C140.887747,2.31351632 140.91333,2.18490889 141.003217,1.90280226 L141.504164,0.155884653 L141.953598,0.155884653 L141.542884,1.96676026 C141.786616,2.03106397 141.953598,2.236421 141.953598,2.49329015" id="Fill-14" fill="#0F2A54"></path>
                <polygon id="Fill-15" fill="#0F2A54" points="148.605991 9.13302908 148.605991 9.68514216 143.276388 9.68514216 143.276388 9.24849919 147.69433 3.53376575 143.340692 3.53376575 143.340692 2.98130695 148.529241 2.98130695 148.529241 3.41794992 144.098162 9.13302908"></polygon>
                <path d="M156.569003,6.33318998 C156.569003,4.65092181 155.400473,3.50797512 153.859258,3.50797512 C152.318389,3.50797512 151.162305,4.65092181 151.162305,6.33318998 C151.162305,8.01580388 152.318389,9.15840485 153.859258,9.15840485 C155.400473,9.15840485 156.569003,8.01580388 156.569003,6.33318998 M157.211003,6.33318998 C157.211003,8.33663102 155.785604,9.73644685 153.897633,9.73644685 C152.690383,9.73644685 151.676044,9.13316737 151.149168,8.10569079 L151.149168,9.68528045 L150.533097,9.68528045 L150.533097,0.155884653 L151.175097,0.155884653 L151.175097,4.5098685 C151.714764,3.50797512 152.716312,2.92993312 153.897633,2.92993312 C155.785604,2.92993312 157.211003,4.31695735 157.211003,6.33318998" id="Fill-16" fill="#0F2A54"></path>
                <path d="M159.112077,5.98643393 L164.249114,5.98643393 C164.159227,4.53510598 163.106167,3.4948378 161.680423,3.4948378 C160.255024,3.4948378 159.214755,4.5226601 159.112077,5.98643393 M164.865531,6.48738061 L159.099285,6.48738061 C159.163243,8.07976187 160.332119,9.15840485 161.937292,9.15840485 C162.78534,9.15840485 163.568394,8.85036931 164.082132,8.2211609 L164.454471,8.64466656 C163.863983,9.36410759 162.939185,9.73644685 161.9245,9.73644685 C159.895476,9.73644685 158.470077,8.32383942 158.470077,6.33318998 C158.470077,4.34254055 159.84431,2.92993312 161.680423,2.92993312 C163.517227,2.92993312 164.878322,4.31695735 164.878322,6.30760679 C164.878322,6.3591189 164.865531,6.4230769 164.865531,6.48738061" id="Fill-17" fill="#0F2A54"></path>
                <polygon id="Fill-18" fill="#0F2A54" points="169.258132 6.10224976 167.51156 7.69463102 167.51156 9.68528045 166.869214 9.68528045 166.869214 0.155884653 167.51156 0.155884653 167.51156 6.89844039 171.800894 2.98144523 172.622668 2.98144523 169.733495 5.69118998 172.905466 9.68528045 172.109275 9.68528045"></polygon>
                <path d="M174.309041,9.68531502 L174.961506,9.68531502 L174.961506,2.98147981 L174.309041,2.98147981 L174.309041,9.68531502 Z M174.100098,0.836639742 C174.100098,0.554187399 174.335027,0.310109855 174.635273,0.310109855 C174.935168,0.310109855 175.170098,0.541050081 175.170098,0.823848142 C175.170098,1.11909208 174.935168,1.35037803 174.635273,1.35037803 C174.335027,1.35037803 174.100098,1.11909208 174.100098,0.836639742 L174.100098,0.836639742 Z" id="Fill-19" fill="#0F2A54"></path>
                <path d="M176.668962,8.87626365 L176.964206,8.36252536 C177.477944,8.79882262 178.389951,9.17150759 179.378707,9.17150759 C180.79166,9.17150759 181.356564,8.6705609 181.356564,7.91274507 C181.356564,5.96081616 176.913039,7.3993525 176.913039,4.76635735 C176.913039,3.75201809 177.760396,2.92989855 179.456148,2.92989855 C180.303505,2.92989855 181.228303,3.18676769 181.754487,3.58503586 L181.458897,4.09877415 C180.894338,3.68771438 180.162106,3.49514895 179.44301,3.49514895 C178.132736,3.49514895 177.555039,4.03447044 177.555039,4.75356575 C177.555039,6.7701441 181.998564,5.34439935 181.998564,7.90029919 C181.998564,8.99173376 181.060975,9.73641228 179.353123,9.73641228 C178.248552,9.73641228 177.195492,9.36407302 176.668962,8.87626365" id="Fill-20" fill="#0F2A54"></path>
                <path d="M187.123432,9.26132536 C186.789468,9.58249822 186.250146,9.73668885 185.748854,9.73668885 C184.567878,9.73668885 183.925532,9.04317674 183.925532,7.91302165 L183.925532,3.53380032 L182.692699,3.53380032 L182.692699,2.98134152 L183.925532,2.98134152 L183.925532,1.51722197 L184.567878,1.51722197 L184.567878,2.98134152 L186.699581,2.98134152 L186.699581,3.53380032 L184.567878,3.53380032 L184.567878,7.84871793 C184.567878,8.70921228 184.991384,9.18423005 185.813158,9.18423005 C186.211772,9.18423005 186.583765,9.05596834 186.853772,8.81189079 L187.123432,9.26132536 Z" id="Fill-21" fill="#0F2A54"></path>
                <path d="M193.981596,6.33318998 C193.981596,4.65092181 192.825512,3.50797512 191.284298,3.50797512 C189.743428,3.50797512 188.58769,4.65092181 188.58769,6.33318998 C188.58769,8.01580388 189.743428,9.15840485 191.284298,9.15840485 C192.825512,9.15840485 193.981596,8.01580388 193.981596,6.33318998 M187.932553,6.33318998 C187.932553,4.34254055 189.357952,2.92993312 191.284298,2.92993312 C193.210989,2.92993312 194.636388,4.34254055 194.636388,6.33318998 C194.636388,8.32383942 193.210989,9.73644685 191.284298,9.73644685 C189.357952,9.73644685 187.932553,8.32383942 187.932553,6.33318998" id="Fill-22" fill="#0F2A54"></path>
                <path d="M202.625226,5.76818158 L202.625226,9.68517674 L201.98288,9.68517674 L201.98288,5.81934798 C201.98288,4.30440775 201.173898,3.50787141 199.812457,3.50787141 C198.232867,3.50787141 197.269694,4.52255638 197.269694,6.11493764 L197.269694,9.68517674 L196.627349,9.68517674 L196.627349,2.98134152 L197.244111,2.98134152 L197.244111,4.43266947 C197.693546,3.49507981 198.631135,2.93017512 199.902689,2.93017512 C201.533446,2.93017512 202.625226,3.89334798 202.625226,5.76818158" id="Fill-23" fill="#0F2A54"></path>
                <polygon id="Fill-24" fill="#0F2A54" points="139.66691 21.8008956 139.653773 14.1083044 135.891314 20.6064368 135.570141 20.6064368 131.807336 14.1335418 131.807336 21.8008956 131.165336 21.8008956 131.165336 12.811167 131.717449 12.811167 135.736777 19.7590798 139.756797 12.811167 140.296118 12.811167 140.309256 21.8008956"></polygon>
                <path d="M143.240661,21.8006882 L143.893125,21.8006882 L143.893125,15.096853 L143.240661,15.096853 L143.240661,21.8006882 Z M143.032068,12.9520129 C143.032068,12.6695606 143.267349,12.4258288 143.567244,12.4258288 C143.867139,12.4258288 144.102068,12.656769 144.102068,12.939567 C144.102068,13.234811 143.867139,13.4657512 143.567244,13.4657512 C143.267349,13.4657512 143.032068,13.234811 143.032068,12.9520129 L143.032068,12.9520129 Z" id="Fill-25" fill="#0F2A54"></path>
                <polygon id="Fill-26" fill="#0F2A54" points="146.589516 21.8006882 147.231862 21.8006882 147.231862 12.2716381 146.589516 12.2716381"></polygon>
                <polygon id="Fill-27" fill="#0F2A54" points="149.941606 21.8006882 150.583952 21.8006882 150.583952 12.2716381 149.941606 12.2716381"></polygon>
                <path d="M153.297,21.8006882 L153.949679,21.8006882 L153.949679,15.096853 L153.297,15.096853 L153.297,21.8006882 Z M153.08834,12.9520129 C153.08834,12.6695606 153.322995,12.4258288 153.62334,12.4258288 C153.923333,12.4258288 154.15834,12.656769 154.15834,12.939567 C154.15834,13.234811 153.923333,13.4657512 153.62334,13.4657512 C153.322995,13.4657512 153.08834,13.234811 153.08834,12.9520129 L153.08834,12.9520129 Z" id="Fill-28" fill="#0F2A54"></path>
                <path d="M162.026902,15.0970258 L158.584925,22.7125218 C158.045603,23.9453554 157.377674,24.3439693 156.491942,24.3439693 C155.887972,24.3439693 155.322721,24.1382666 154.937936,23.7399984 L155.258763,23.252189 C155.605519,23.6117367 156.003787,23.7783732 156.504388,23.7783732 C157.120805,23.7783732 157.57024,23.4959208 157.9813,22.5842601 L158.341193,21.7752779 L155.322721,15.0970258 L156.003787,15.0970258 L158.687949,21.0945574 L161.371765,15.0970258 L162.026902,15.0970258 Z" id="Fill-29" fill="#0F2A54"></path>
                <path d="M170.927297,19.8233144 L170.927297,18.5645519 L168.641058,18.5645519 C167.254034,18.5645519 166.766224,19.1425939 166.766224,19.9132013 C166.766224,20.7864872 167.446599,21.325463 168.628612,21.325463 C169.758767,21.325463 170.54182,20.7864872 170.927297,19.8233144 M171.569297,17.5498669 L171.569297,21.8008265 L170.95288,21.8008265 L170.95288,20.6063677 C170.529029,21.3769751 169.706909,21.8523386 168.538379,21.8523386 C167.035885,21.8523386 166.123879,21.0817312 166.123879,19.9384388 C166.123879,18.9240995 166.766224,18.0636052 168.628612,18.0636052 L170.927297,18.0636052 L170.927297,17.5242837 C170.927297,16.2786585 170.246576,15.6107296 168.936647,15.6107296 C168.011849,15.6107296 167.177284,15.9574856 166.624825,16.4584323 L166.303652,15.9958604 C166.971927,15.4053725 167.947891,15.0454792 168.987814,15.0454792 C170.644499,15.0454792 171.569297,15.8931819 171.569297,17.5498669" id="Fill-30" fill="#0F2A54"></path>
                <polygon id="Fill-31" fill="#0F2A54" points="178.479111 21.8008956 176.180426 18.8083528 173.881396 21.8008956 173.149163 21.8008956 175.807742 18.3461267 173.290908 15.0970604 174.022795 15.0970604 176.180426 17.8835548 178.337712 15.0970604 179.057153 15.0970604 176.539974 18.3461267 179.236927 21.8008956"></polygon>
                <path d="M186.917315,18.4488743 C186.917315,16.7666061 185.748785,15.6236595 184.20757,15.6236595 C182.666701,15.6236595 181.510617,16.7666061 181.510617,18.4488743 C181.510617,20.1314882 182.666701,21.2740892 184.20757,21.2740892 C185.748785,21.2740892 186.917315,20.1314882 186.917315,18.4488743 M187.559315,18.4488743 C187.559315,20.4523153 186.133916,21.8521312 184.245945,21.8521312 C183.038694,21.8521312 182.024355,21.2488517 181.497479,20.2213751 L181.497479,21.8009648 L180.881063,21.8009648 L180.881063,12.271569 L181.523408,12.271569 L181.523408,16.6255528 C182.06273,15.6236595 183.064623,15.0456174 184.245945,15.0456174 C186.133916,15.0456174 187.559315,16.4326417 187.559315,18.4488743" id="Fill-32" fill="#0F2A54"></path>
                <path d="M194.867155,18.4488743 C194.867155,16.7666061 193.711071,15.6236595 192.170202,15.6236595 C190.628987,15.6236595 189.473249,16.7666061 189.473249,18.4488743 C189.473249,20.1314882 190.628987,21.2740892 192.170202,21.2740892 C193.711071,21.2740892 194.867155,20.1314882 194.867155,18.4488743 M188.818112,18.4488743 C188.818112,16.4582249 190.243857,15.0456174 192.170202,15.0456174 C194.096548,15.0456174 195.521947,16.4582249 195.521947,18.4488743 C195.521947,20.4395237 194.096548,21.8521312 192.170202,21.8521312 C190.243857,21.8521312 188.818112,20.4395237 188.818112,18.4488743" id="Fill-33" fill="#0F2A54"></path>
                <path d="M200.685466,15.0455483 L200.685466,15.6747567 C200.6343,15.6747567 200.582788,15.6619651 200.531276,15.6619651 C199.041573,15.6619651 198.155495,16.6510669 198.155495,18.3077519 L198.155495,21.8008956 L197.51315,21.8008956 L197.51315,15.0970604 L198.129566,15.0970604 L198.129566,16.56118 C198.540626,15.5852155 199.426704,15.0455483 200.685466,15.0455483" id="Fill-34" fill="#0F2A54"></path>
                <path d="M207.710751,18.4488743 C207.710751,16.7666061 206.555013,15.6236595 205.013798,15.6236595 C203.472929,15.6236595 202.316845,16.7666061 202.316845,18.4488743 C202.316845,20.1314882 203.472929,21.2740892 205.013798,21.2740892 C206.555013,21.2740892 207.710751,20.1314882 207.710751,18.4488743 M201.661707,18.4488743 C201.661707,16.4582249 203.087106,15.0456174 205.013798,15.0456174 C206.940143,15.0456174 208.365542,16.4582249 208.365542,18.4488743 C208.365542,20.4395237 206.940143,21.8521312 205.013798,21.8521312 C203.087106,21.8521312 201.661707,20.4395237 201.661707,18.4488743" id="Fill-35" fill="#0F2A54"></path>
                <path d="M213.683183,21.3770097 C213.349219,21.6981826 212.809897,21.8523732 212.308951,21.8523732 C211.127283,21.8523732 210.485283,21.1588611 210.485283,20.028706 L210.485283,15.6494847 L209.25245,15.6494847 L209.25245,15.0970258 L210.485283,15.0970258 L210.485283,13.6329063 L211.127283,13.6329063 L211.127283,15.0970258 L213.259332,15.0970258 L213.259332,15.6494847 L211.127283,15.6494847 L211.127283,19.9644023 C211.127283,20.8248966 211.551135,21.2999144 212.372909,21.2999144 C212.771177,21.2999144 213.143516,21.1713069 213.413522,20.9275751 L213.683183,21.3770097 Z" id="Fill-36" fill="#0F2A54"></path>
                <path d="M135.159254,31.9388258 L135.159254,30.680409 L132.873015,30.680409 C131.485991,30.680409 130.998181,31.2584511 130.998181,32.0290585 C130.998181,32.9023444 131.678902,33.4416659 132.860223,33.4416659 C133.990378,33.4416659 134.773777,32.9023444 135.159254,31.9388258 M135.801254,29.6660698 L135.801254,33.9166837 L135.184837,33.9166837 L135.184837,32.7222249 C134.761332,33.4928323 133.939212,33.9681958 132.770336,33.9681958 C131.268188,33.9681958 130.355836,33.1975884 130.355836,32.054296 C130.355836,31.0399567 130.998181,30.1798081 132.860223,30.1798081 L135.159254,30.1798081 L135.159254,29.6401409 C135.159254,28.3945157 134.478533,27.7265868 133.168259,27.7265868 C132.243806,27.7265868 131.409241,28.0733428 130.857128,28.5742895 L130.535955,28.1120633 C131.203884,27.520884 132.179848,27.1616821 133.220117,27.1616821 C134.876456,27.1616821 135.801254,28.0090391 135.801254,29.6660698" id="Fill-37" fill="#0F2A54"></path>
                <path d="M143.866703,30.41061 C143.866703,28.8310204 142.710965,27.7392401 141.118584,27.7392401 C139.538994,27.7392401 138.38291,28.8310204 138.38291,30.41061 C138.38291,31.9905454 139.538994,33.0947716 141.118584,33.0947716 C142.710965,33.0947716 143.866703,31.9905454 143.866703,30.41061 L143.866703,30.41061 Z M144.495911,27.2127102 L144.495911,33.1977958 C144.495911,35.4449687 143.404477,36.4596536 141.246845,36.4596536 C140.026803,36.4596536 138.858273,36.0741771 138.177553,35.3938023 L138.523963,34.9056472 C139.191892,35.522064 140.155411,35.8819574 141.233708,35.8819574 C143.019346,35.8819574 143.853911,35.0598378 143.853911,33.2745454 L143.853911,32.1443903 C143.301798,33.1207005 142.274322,33.6728136 141.067071,33.6728136 C139.166309,33.6728136 137.728118,32.3241641 137.728118,30.41061 C137.728118,28.4974016 139.166309,27.1618895 141.067071,27.1618895 C142.299905,27.1618895 143.340519,27.7264485 143.879495,28.7283418 L143.879495,27.2127102 L144.495911,27.2127102 Z" id="Fill-38" fill="#0F2A54"></path>
                <path d="M147.129252,30.2181829 L152.266289,30.2181829 C152.176403,28.7668549 151.123343,27.7265868 149.697598,27.7265868 C148.272199,27.7265868 147.231931,28.7540633 147.129252,30.2181829 M152.882706,30.7187838 L147.116461,30.7187838 C147.180419,32.3115108 148.349294,33.3901538 149.954467,33.3901538 C150.802516,33.3901538 151.585569,33.0821183 152.098962,32.4525641 L152.471647,32.8764155 C151.881159,33.5958565 150.956361,33.9681958 149.941676,33.9681958 C147.912651,33.9681958 146.487252,32.5552426 146.487252,30.5645932 C146.487252,28.5742895 147.861139,27.1616821 149.697598,27.1616821 C151.534403,27.1616821 152.895498,28.5483606 152.895498,30.5393557 C152.895498,30.5905221 152.882706,30.6548258 152.882706,30.7187838" id="Fill-39" fill="#0F2A54"></path>
                <path d="M160.884232,29.9997231 L160.884232,33.9167183 L160.241886,33.9167183 L160.241886,30.0508895 C160.241886,28.5359493 159.432904,27.7394129 158.071463,27.7394129 C156.491873,27.7394129 155.5287,28.7537522 155.5287,30.3464792 L155.5287,33.9167183 L154.886355,33.9167183 L154.886355,27.2125373 L155.502772,27.2125373 L155.502772,28.664211 C155.952552,27.7266213 156.890142,27.1617166 158.161696,27.1617166 C159.792452,27.1617166 160.884232,28.1248895 160.884232,29.9997231" id="Fill-40" fill="#0F2A54"></path>
                <path d="M166.856319,33.4928669 C166.522354,33.8140397 165.983033,33.9682304 165.48174,33.9682304 C164.300764,33.9682304 163.658419,33.2743725 163.658419,32.1442174 L163.658419,27.7653418 L162.425585,27.7653418 L162.425585,27.2125373 L163.658419,27.2125373 L163.658419,25.7487635 L164.300764,25.7487635 L164.300764,27.2125373 L166.432467,27.2125373 L166.432467,27.7653418 L164.300764,27.7653418 L164.300764,32.0802595 C164.300764,32.9407538 164.72427,33.4161173 165.546044,33.4161173 C165.944658,33.4161173 166.316651,33.2875099 166.586658,33.0434323 L166.856319,33.4928669 Z" id="Fill-41" fill="#0F2A54"></path>
                <polygon id="Fill-42" fill="#0F2A54" points="168.641542 33.9167528 169.283542 33.9167528 169.283542 24.3877027 168.641542 24.3877027"></polygon>
                <path d="M171.996936,33.9167528 L172.649263,33.9167528 L172.649263,27.2125719 L171.996936,27.2125719 L171.996936,33.9167528 Z M171.788275,25.0680775 C171.788275,24.7856252 172.022931,24.5415477 172.322924,24.5415477 C172.623269,24.5415477 172.858275,24.7728336 172.858275,25.0552859 C172.858275,25.3508756 172.623269,25.5818158 172.322924,25.5818158 C172.022931,25.5818158 171.788275,25.3508756 171.788275,25.0680775 L171.788275,25.0680775 Z" id="Fill-43" fill="#0F2A54"></path>
                <path d="M180.752282,30.41061 C180.752282,28.8310204 179.596544,27.7392401 178.004163,27.7392401 C176.424227,27.7392401 175.268489,28.8310204 175.268489,30.41061 C175.268489,31.9905454 176.424227,33.0947716 178.004163,33.0947716 C179.596544,33.0947716 180.752282,31.9905454 180.752282,30.41061 L180.752282,30.41061 Z M181.381491,27.2127102 L181.381491,33.1977958 C181.381491,35.4449687 180.290056,36.4596536 178.132425,36.4596536 C176.912383,36.4596536 175.743853,36.0741771 175.063132,35.3938023 L175.409542,34.9056472 C176.077471,35.522064 177.040644,35.8819574 178.119633,35.8819574 C179.904925,35.8819574 180.739145,35.0598378 180.739145,33.2745454 L180.739145,32.1443903 C180.187032,33.1207005 179.159901,33.6728136 177.952651,33.6728136 C176.051888,33.6728136 174.613698,32.3241641 174.613698,30.41061 C174.613698,28.4974016 176.051888,27.1618895 177.952651,27.1618895 C179.185484,27.1618895 180.225753,27.7264485 180.765074,28.7283418 L180.765074,27.2127102 L181.381491,27.2127102 Z" id="Fill-44" fill="#0F2A54"></path>
                <path d="M184.107815,33.9167528 L184.760142,33.9167528 L184.760142,27.2125719 L184.107815,27.2125719 L184.107815,33.9167528 Z M183.899154,25.0680775 C183.899154,24.7856252 184.134161,24.5415477 184.434154,24.5415477 C184.734148,24.5415477 184.969154,24.7728336 184.969154,25.0552859 C184.969154,25.3508756 184.734148,25.5818158 184.434154,25.5818158 C184.134161,25.5818158 183.899154,25.3508756 183.899154,25.0680775 L183.899154,25.0680775 Z" id="Fill-45" fill="#0F2A54"></path>
            </g>
        </g>
    </g>
</svg>